{"accessors":[{"name":"Object.1-Mesh_positions","componentType":5126,"count":300,"min":[17.37737274169922,-376.5652770996094,-0.000014999999621068127],"max":[213.38613891601562,-354.0652770996094,69.29505157470703],"type":"VEC3","bufferView":0,"byteOffset":0},{"name":"Object.1-Mesh_0_indices","componentType":5123,"count":1752,"min":[0],"max":[299],"type":"SCALAR","bufferView":1,"byteOffset":0}],"asset":{"generator":"obj2gltf","version":"2.0"},"buffers":[{"name":"input","byteLength":7104,"uri":"data:application/octet-stream;base64,"}],"bufferViews":[{"name":"bufferView_0","buffer":0,"byteLength":3600,"byteOffset":0,"byteStride":12,"target":34962},{"name":"bufferView_1","buffer":0,"byteLength":3504,"byteOffset":3600,"target":34963}],"materials":[{"name":"50","pbrMetallicRoughness":{"baseColorFactor":[0.5,0.5,0.5,1],"metallicFactor":0,"roughnessFactor":1},"emissiveFactor":[0,0,0],"alphaMode":"OPAQUE","doubleSided":false}],"meshes":[{"name":"Object.1-Mesh","primitives":[{"attributes":{"POSITION":0},"indices":1,"material":0,"mode":4}]}],"nodes":[{"name":"Object.1","mesh":0}],"scene":0,"scenes":[{"nodes":[0]}]}
